# xmcd CD database file
#
# Track frame offsets:
#	150
#	27200
#	45203
#	72241
#
# Disc length: 1201 seconds
#
# Revision: 0
# Processed by: cddbd v1.5.1PL0 Copyright (c) Steve Scherf et al.
# Submitted via: CDex 1.51
#
DISCID=2704af04
DTITLE=安室 奈美恵 - ALL FOR YOU
DYEAR=2004
DGENRE=JPop
TTITLE0=ALL FOR YOU
TTITLE1=butterfly
TTITLE2=ALL FOR YOU (Instrumental)
TTITLE3=butterfly (Instrumental)
EXTD=YEAR: 2004
EXTT0=
EXTT1=
EXTT2=
EXTT3=
PLAYORDER=
